<?xml version="1.0" encoding="UTF-8" standalone="no"?>
<!-- Created with Inkscape (http://www.inkscape.org/) -->

<svg
   xmlns:dc="http://purl.org/dc/elements/1.1/"
   xmlns:cc="http://creativecommons.org/ns#"
   xmlns:rdf="http://www.w3.org/1999/02/22-rdf-syntax-ns#"
   xmlns:svg="http://www.w3.org/2000/svg"
   xmlns="http://www.w3.org/2000/svg"
   xmlns:sodipodi="http://sodipodi.sourceforge.net/DTD/sodipodi-0.dtd"
   xmlns:inkscape="http://www.inkscape.org/namespaces/inkscape"
   width="32"
   height="32"
   viewBox="0 0 8.4666667 8.4666669"
   version="1.1"
   id="svg8"
   inkscape:version="0.92.3 (2405546, 2018-03-11)"
   sodipodi:docname="ico.svg"
   inkscape:export-filename="C:\Users\brraf_000\Desktop\ico.png"
   inkscape:export-xdpi="96"
   inkscape:export-ydpi="96">
  <defs
     id="defs2" />
  <sodipodi:namedview
     id="base"
     pagecolor="#ffffff"
     bordercolor="#666666"
     borderopacity="1.0"
     inkscape:pageopacity="0.0"
     inkscape:pageshadow="2"
     inkscape:zoom="3.234771"
     inkscape:cx="8.3246678"
     inkscape:cy="9.4940679"
     inkscape:document-units="mm"
     inkscape:current-layer="layer1"
     showgrid="false"
     inkscape:window-width="1366"
     inkscape:window-height="705"
     inkscape:window-x="-8"
     inkscape:window-y="-8"
     inkscape:window-maximized="1"
     units="px" />
  <metadata
     id="metadata5">
    <rdf:RDF>
      <cc:Work
         rdf:about="">
        <dc:format>image/svg+xml</dc:format>
        <dc:type
           rdf:resource="http://purl.org/dc/dcmitype/StillImage" />
        <dc:title></dc:title>
      </cc:Work>
    </rdf:RDF>
  </metadata>
  <g
     inkscape:label="Layer 1"
     inkscape:groupmode="layer"
     id="layer1"
     transform="translate(0,-288.53332)">
    <circle
       style="opacity:1;vector-effect:none;fill:#e4e400;fill-opacity:1;fill-rule:evenodd;stroke:none;stroke-width:0.14826505;stroke-linecap:round;stroke-linejoin:round;stroke-miterlimit:4;stroke-dasharray:none;stroke-dashoffset:0;stroke-opacity:1;paint-order:stroke fill markers"
       id="path912"
       cx="4.2333331"
       cy="292.76666"
       r="3.1382766" />
    <g
       id="g917"
       transform="matrix(0.14826505,0,0,0.14826505,-2.2904533,262.93075)">
      <path
         inkscape:connector-curvature="0"
         id="rect826"
         d="m 33.694953,188.29261 c -1.46703,0 -2.648042,1.18101 -2.648042,2.64804 0,0.0967 0.0058,0.19205 0.01586,0.28605 -0.01031,0.11592 -0.01586,0.23369 -0.01586,0.35297 v 3.85136 c 0.03148,1.41694 1.068254,2.54777 2.353934,2.54777 0.0057,0 0.01122,-6.9e-4 0.01694,-0.001 v 0.0215 c 0.09699,-0.0106 0.195287,-0.0169 0.295183,-0.0169 h 2.860961 v -4.39332 h 9.632152 c 1.46703,0 2.648311,-1.18101 2.648311,-2.64804 0,-1.46703 -1.181281,-2.64804 -2.648311,-2.64804 z m 13.718473,7.49302 c -0.348014,0 -0.628003,0.27999 -0.628003,0.628 v 1.44123 c 0,0.34802 0.279989,0.628 0.628003,0.628 h 1.441235 c 0.348014,0 0.628003,-0.27998 0.628003,-0.628 v -1.44123 c 0,-0.34801 -0.279989,-0.628 -0.628003,-0.628 z m -13.995644,8.6189 v 0.0199 c -0.0057,0 -0.01121,-0.001 -0.01694,-0.001 -1.28568,0 -2.322451,1.13083 -2.353934,2.54777 v 3.91614 c 0,0.10614 0.0047,0.21103 0.0129,0.31454 -0.0082,0.0854 -0.0129,0.17177 -0.0129,0.25943 0,1.16666 0.748105,2.15026 1.791797,2.50502 0.302089,0.13421 0.629462,0.20808 0.971844,0.20808 0.188262,0 0.372008,-0.0225 0.549503,-0.0648 H 46.20608 c 1.46703,0 2.648311,-1.18128 2.648311,-2.64831 0,-1.46703 -1.181281,-2.64804 -2.648311,-2.64804 h -9.632155 v -4.39172 h -2.86096 c -0.0999,0 -0.198197,-0.006 -0.295183,-0.0169 z"
         style="opacity:1;vector-effect:none;fill:#ffffff;fill-opacity:1;fill-rule:evenodd;stroke:none;stroke-width:0.53999662;stroke-linecap:round;stroke-linejoin:round;stroke-miterlimit:4;stroke-dasharray:none;stroke-dashoffset:0;stroke-opacity:1;paint-order:stroke fill markers" />
      <rect
         ry="0.79569858"
         style="opacity:1;vector-effect:none;fill:#5e2e9e;fill-opacity:1;fill-rule:evenodd;stroke:none;stroke-width:0.66382927;stroke-linecap:round;stroke-linejoin:round;stroke-miterlimit:4;stroke-dasharray:none;stroke-dashoffset:0;stroke-opacity:1;paint-order:stroke fill markers"
         id="rect852"
         width="5.3657403"
         height="5.3657403"
         x="51.61858"
         y="190.58731" />
      <path
         sodipodi:nodetypes="cccccssccsssccssc"
         inkscape:connector-curvature="0"
         id="rect834"
         d="m 31.045298,195.88644 -0.02796,2.8e-4 v 5.41921 5.20952 h 0.02796 c -5.2e-5,-0.01 -0.0014,-0.0194 -0.0014,-0.0293 0,-1.44778 1.051241,-2.61336 2.356892,-2.61336 0.0057,0 0.01122,0.001 0.01694,0.001 0.134542,-0.005 0.222993,-0.005 0.295182,-0.003 h 7.71481 c 1.47863,0 2.669012,-1.19038 2.669012,-2.66901 0,-1.47863 -1.190382,-2.66901 -2.669012,-2.66901 h -7.714819 c -0.153078,0.001 -0.229838,-0.001 -0.295183,-0.005 -0.0057,5e-5 -0.0112,0.001 -0.01694,0.001 -1.305651,0 -2.356894,-1.16558 -2.356894,-2.61337 0,-0.01 0.0012,-0.0194 0.0014,-0.0293 z"
         style="opacity:1;vector-effect:none;fill:#5e2e9e;fill-opacity:1;fill-rule:evenodd;stroke:none;stroke-width:0.41718659;stroke-linecap:round;stroke-linejoin:round;stroke-miterlimit:4;stroke-dasharray:none;stroke-dashoffset:0;stroke-opacity:1;paint-order:stroke fill markers" />
    </g>
    <circle
       r="3.1382766"
       cy="292.76666"
       cx="4.2333331"
       id="circle947"
       style="opacity:1;vector-effect:none;fill:#0055ff;fill-opacity:1;fill-rule:evenodd;stroke:none;stroke-width:0.14826505;stroke-linecap:round;stroke-linejoin:round;stroke-miterlimit:4;stroke-dasharray:none;stroke-dashoffset:0;stroke-opacity:1;paint-order:stroke fill markers" />
    <path
       inkscape:connector-curvature="0"
       id="path949"
       d="m 2.7053306,290.84796 c -0.2175093,0 -0.3926121,0.17511 -0.3926121,0.39262 0,0.0143 8.599e-4,0.0285 0.00235,0.0424 -0.00153,0.0172 -0.00235,0.0346 -0.00235,0.0523 v 0.57102 c 0.00467,0.21008 0.1583847,0.37775 0.3490062,0.37775 8.451e-4,0 0.00166,-1.1e-4 0.00251,-1.5e-4 v 0.003 c 0.01438,-0.002 0.028954,-0.003 0.043765,-0.003 h 0.4241805 v -0.65138 h 1.4281115 c 0.2175093,0 0.392652,-0.1751 0.392652,-0.39261 0,-0.21751 -0.1751427,-0.39261 -0.392652,-0.39261 z m 2.0339701,1.11096 c -0.051598,0 -0.093111,0.0415 -0.093111,0.0931 v 0.21368 c 0,0.0516 0.041513,0.0931 0.093111,0.0931 h 0.2136848 c 0.051598,0 0.093111,-0.0415 0.093111,-0.0931 v -0.21368 c 0,-0.0516 -0.041513,-0.0931 -0.093111,-0.0931 z m -2.0750649,1.27788 v 0.003 c -8.451e-4,0 -0.00166,-1.5e-4 -0.00251,-1.5e-4 -0.1906214,0 -0.3443383,0.16766 -0.3490061,0.37775 v 0.58062 c 0,0.0157 6.968e-4,0.0313 0.00191,0.0466 -0.00122,0.0127 -0.00191,0.0255 -0.00191,0.0385 0,0.17298 0.1109178,0.31881 0.2656608,0.37141 0.044789,0.0199 0.093327,0.0309 0.1440905,0.0309 0.027913,0 0.055156,-0.003 0.081472,-0.01 h 1.756352 c 0.2175092,0 0.3926519,-0.17514 0.3926519,-0.39265 0,-0.21751 -0.1751427,-0.39261 -0.3926519,-0.39261 H 3.132183 v -0.65114 H 2.7080011 c -0.014812,0 -0.029386,-8.9e-4 -0.043765,-0.003 z"
       style="opacity:1;vector-effect:none;fill:#ffffff;fill-opacity:1;fill-rule:evenodd;stroke:none;stroke-width:0.08006263;stroke-linecap:round;stroke-linejoin:round;stroke-miterlimit:4;stroke-dasharray:none;stroke-dashoffset:0;stroke-opacity:1;paint-order:stroke fill markers" />
    <path
       style="opacity:1;vector-effect:none;fill:#ffff00;fill-opacity:1;fill-rule:evenodd;stroke:none;stroke-width:0.37199122;stroke-linecap:round;stroke-linejoin:round;stroke-miterlimit:4;stroke-dasharray:none;stroke-dashoffset:0;stroke-opacity:1;paint-order:stroke fill markers"
       d="M 20.714844 10.035156 C 20.467822 10.035156 20.269531 10.233447 20.269531 10.480469 L 20.269531 12.595703 C 20.269531 12.842725 20.467822 13.041016 20.714844 13.041016 L 22.830078 13.041016 C 23.0771 13.041016 23.275391 12.842725 23.275391 12.595703 L 23.275391 10.480469 C 23.275391 10.233447 23.0771 10.035156 22.830078 10.035156 L 20.714844 10.035156 z M 8.7246094 13.003906 L 8.7246094 16.041016 L 8.7246094 18.958984 L 8.7402344 18.958984 C 8.7402053 18.955205 8.7402344 18.949092 8.7402344 18.945312 C 8.7402344 18.133999 9.3288969 17.480469 10.060547 17.480469 C 10.063741 17.480469 10.0671 17.480469 10.070312 17.480469 C 10.145707 17.477672 10.193923 17.47742 10.234375 17.478516 L 14.558594 17.478516 C 15.387176 17.478516 16.054688 16.812961 16.054688 15.984375 C 16.054688 15.155789 15.387176 14.488281 14.558594 14.488281 L 10.234375 14.488281 C 10.148595 14.488848 10.106929 14.486605 10.070312 14.484375 C 10.067118 14.484413 10.063759 14.486328 10.060547 14.486328 C 9.3288969 14.486328 8.7402344 13.83276 8.7402344 13.021484 C 8.7402344 13.017705 8.7401221 13.009639 8.7402344 13.005859 L 8.7402344 13.003906 L 8.7246094 13.003906 z "
       transform="matrix(0.26458333,0,0,0.26458333,0,288.53332)"
       id="rect951" />
  </g>
</svg>
