<?xml version="1.0" encoding="UTF-8" standalone="no"?>
<!-- Created with Inkscape (http://www.inkscape.org/) -->

<svg
   xmlns:dc="http://purl.org/dc/elements/1.1/"
   xmlns:cc="http://creativecommons.org/ns#"
   xmlns:rdf="http://www.w3.org/1999/02/22-rdf-syntax-ns#"
   xmlns:svg="http://www.w3.org/2000/svg"
   xmlns="http://www.w3.org/2000/svg"
   xmlns:sodipodi="http://sodipodi.sourceforge.net/DTD/sodipodi-0.dtd"
   xmlns:inkscape="http://www.inkscape.org/namespaces/inkscape"
   width="221"
   height="50"
   viewBox="0 0 58.472917 13.229167"
   version="1.1"
   id="svg8"
   inkscape:version="0.92.3 (2405546, 2018-03-11)"
   sodipodi:docname="logo.svg"
   inkscape:export-filename="C:\Users\brraf_000\Desktop\logo.png"
   inkscape:export-xdpi="96"
   inkscape:export-ydpi="96">
  <defs
     id="defs2" />
  <sodipodi:namedview
     id="base"
     pagecolor="#ffffff"
     bordercolor="#666666"
     borderopacity="1.0"
     inkscape:pageopacity="0.0"
     inkscape:pageshadow="2"
     inkscape:zoom="2.755745"
     inkscape:cx="120.00618"
     inkscape:cy="-18.302721"
     inkscape:document-units="mm"
     inkscape:current-layer="layer1"
     showgrid="false"
     inkscape:window-width="1366"
     inkscape:window-height="705"
     inkscape:window-x="-8"
     inkscape:window-y="-8"
     inkscape:window-maximized="1"
     units="px" />
  <metadata
     id="metadata5">
    <rdf:RDF>
      <cc:Work
         rdf:about="">
        <dc:format>image/svg+xml</dc:format>
        <dc:type
           rdf:resource="http://purl.org/dc/dcmitype/StillImage" />
        <dc:title></dc:title>
      </cc:Work>
    </rdf:RDF>
  </metadata>
  <g
     inkscape:label="Layer 1"
     inkscape:groupmode="layer"
     id="layer1"
     transform="translate(0,-283.77082)">
    <g
       id="g931"
       transform="matrix(0.31217814,0,0,0.31217814,-19.54441,229.63056)">
      <g
         transform="matrix(1.8574857,0,0,1.8574857,43.967445,-243.91617)"
         id="g910">
        <path
           inkscape:connector-curvature="0"
           style="opacity:1;vector-effect:none;fill:#5e2e9e;fill-opacity:1;fill-rule:evenodd;stroke:none;stroke-width:5.28075266;stroke-linecap:round;stroke-linejoin:round;stroke-miterlimit:4;stroke-dasharray:none;stroke-dashoffset:0;stroke-opacity:1;paint-order:stroke fill markers"
           d="m 354.11133,850.38086 v 0.10547 h -173.3711 c -22.65362,0 -41.02744,17.67705 -42.13281,40.04687 h -0.0527 v 2.13672 41.92383 h 37.51758 c 1.53267,0.1673 3.08932,0.26172 4.66796,0.26172 h 194.30665 c 22.77544,0 41.21444,-17.87165 42.13867,-40.41211 h 0.0449 v -44.0625 z"
           transform="scale(0.26458333)"
           id="rect895" />
        <g
           id="g902"
           transform="translate(0.9465282,-0.20406365)">
          <text
             id="text885"
             y="243.63864"
             x="42.413395"
             style="font-style:normal;font-variant:normal;font-weight:normal;font-stretch:normal;font-size:19.747015px;line-height:125%;font-family:Arial;-inkscape-font-specification:'Arial, Normal';font-variant-ligatures:normal;font-variant-caps:normal;font-variant-numeric:normal;font-feature-settings:normal;text-align:start;letter-spacing:0px;word-spacing:0px;writing-mode:lr-tb;text-anchor:start;fill:#e4e400;fill-opacity:1;stroke:none;stroke-width:2.01793909px;stroke-linecap:butt;stroke-linejoin:miter;stroke-opacity:1"
             xml:space="preserve"><tspan
               style="font-style:normal;font-variant:normal;font-weight:normal;font-stretch:normal;font-family:'Futura Bk BT';-inkscape-font-specification:'Futura Bk BT';fill:#e4e400;fill-opacity:1;stroke-width:2.01793909px"
               y="243.63864"
               x="42.413395"
               id="tspan883"
               sodipodi:role="line">APP</tspan></text>
          <text
             id="text889"
             y="243.62489"
             x="78.526642"
             style="font-style:normal;font-variant:normal;font-weight:normal;font-stretch:normal;font-size:16.45727348px;line-height:125%;font-family:Arial;-inkscape-font-specification:'Arial, Normal';font-variant-ligatures:normal;font-variant-caps:normal;font-variant-numeric:normal;font-feature-settings:normal;text-align:start;letter-spacing:0px;word-spacing:0px;writing-mode:lr-tb;text-anchor:start;fill:#ffffff;fill-opacity:1;stroke:none;stroke-width:1.68176186px;stroke-linecap:butt;stroke-linejoin:miter;stroke-opacity:1"
             xml:space="preserve"><tspan
               style="font-style:normal;font-variant:normal;font-weight:normal;font-stretch:normal;font-family:Bebas;-inkscape-font-specification:Bebas;fill:#ffffff;fill-opacity:1;stroke-width:1.68176186px"
               y="243.62489"
               x="78.526642"
               id="tspan887"
               sodipodi:role="line">EDU</tspan></text>
        </g>
      </g>
      <circle
         r="20.902082"
         cy="194.60625"
         cx="84.402092"
         id="path912"
         style="opacity:1;vector-effect:none;fill:#e4e400;fill-opacity:1;fill-rule:evenodd;stroke:none;stroke-width:0.98750001;stroke-linecap:round;stroke-linejoin:round;stroke-miterlimit:4;stroke-dasharray:none;stroke-dashoffset:0;stroke-opacity:1;paint-order:stroke fill markers" />
      <g
         transform="matrix(0.9875,0,0,0.9875,40.951263,-4.1118411)"
         id="g917">
        <path
           style="opacity:1;vector-effect:none;fill:#ffffff;fill-opacity:1;fill-rule:evenodd;stroke:none;stroke-width:0.53999662;stroke-linecap:round;stroke-linejoin:round;stroke-miterlimit:4;stroke-dasharray:none;stroke-dashoffset:0;stroke-opacity:1;paint-order:stroke fill markers"
           d="m 33.694953,188.29261 c -1.46703,0 -2.648042,1.18101 -2.648042,2.64804 0,0.0967 0.0058,0.19205 0.01586,0.28605 -0.01031,0.11592 -0.01586,0.23369 -0.01586,0.35297 v 3.85136 c 0.03148,1.41694 1.068254,2.54777 2.353934,2.54777 0.0057,0 0.01122,-6.9e-4 0.01694,-0.001 v 0.0215 c 0.09699,-0.0106 0.195287,-0.0169 0.295183,-0.0169 h 2.860961 v -4.39332 h 9.632152 c 1.46703,0 2.648311,-1.18101 2.648311,-2.64804 0,-1.46703 -1.181281,-2.64804 -2.648311,-2.64804 z m 13.718473,7.49302 c -0.348014,0 -0.628003,0.27999 -0.628003,0.628 v 1.44123 c 0,0.34802 0.279989,0.628 0.628003,0.628 h 1.441235 c 0.348014,0 0.628003,-0.27998 0.628003,-0.628 v -1.44123 c 0,-0.34801 -0.279989,-0.628 -0.628003,-0.628 z m -13.995644,8.6189 v 0.0199 c -0.0057,0 -0.01121,-0.001 -0.01694,-0.001 -1.28568,0 -2.322451,1.13083 -2.353934,2.54777 v 3.91614 c 0,0.10614 0.0047,0.21103 0.0129,0.31454 -0.0082,0.0854 -0.0129,0.17177 -0.0129,0.25943 0,1.16666 0.748105,2.15026 1.791797,2.50502 0.302089,0.13421 0.629462,0.20808 0.971844,0.20808 0.188262,0 0.372008,-0.0225 0.549503,-0.0648 H 46.20608 c 1.46703,0 2.648311,-1.18128 2.648311,-2.64831 0,-1.46703 -1.181281,-2.64804 -2.648311,-2.64804 h -9.632155 v -4.39172 h -2.86096 c -0.0999,0 -0.198197,-0.006 -0.295183,-0.0169 z"
           id="rect826"
           inkscape:connector-curvature="0" />
        <rect
           y="190.58731"
           x="51.61858"
           height="5.3657403"
           width="5.3657403"
           id="rect852"
           style="opacity:1;vector-effect:none;fill:#5e2e9e;fill-opacity:1;fill-rule:evenodd;stroke:none;stroke-width:0.66382927;stroke-linecap:round;stroke-linejoin:round;stroke-miterlimit:4;stroke-dasharray:none;stroke-dashoffset:0;stroke-opacity:1;paint-order:stroke fill markers"
           ry="0.79569858" />
        <path
           style="opacity:1;vector-effect:none;fill:#5e2e9e;fill-opacity:1;fill-rule:evenodd;stroke:none;stroke-width:0.41718659;stroke-linecap:round;stroke-linejoin:round;stroke-miterlimit:4;stroke-dasharray:none;stroke-dashoffset:0;stroke-opacity:1;paint-order:stroke fill markers"
           d="m 31.045298,195.88644 -0.02796,2.8e-4 v 5.41921 5.20952 h 0.02796 c -5.2e-5,-0.01 -0.0014,-0.0194 -0.0014,-0.0293 0,-1.44778 1.051241,-2.61336 2.356892,-2.61336 0.0057,0 0.01122,0.001 0.01694,0.001 0.134542,-0.005 0.222993,-0.005 0.295182,-0.003 h 7.71481 c 1.47863,0 2.669012,-1.19038 2.669012,-2.66901 0,-1.47863 -1.190382,-2.66901 -2.669012,-2.66901 h -7.714819 c -0.153078,0.001 -0.229838,-0.001 -0.295183,-0.005 -0.0057,5e-5 -0.0112,0.001 -0.01694,0.001 -1.305651,0 -2.356894,-1.16558 -2.356894,-2.61337 0,-0.01 0.0012,-0.0194 0.0014,-0.0293 z"
           id="rect834"
           inkscape:connector-curvature="0"
           sodipodi:nodetypes="cccccssccsssccssc" />
      </g>
    </g>
    <path
       sodipodi:nodetypes="ccccccccc"
       id="path933"
       d="m 21.910972,283.96942 c -3.475586,0 -6.294553,2.71206 -6.464142,6.14411 h -0.0081 c 0,2.2533 0,4.54794 0,6.80124 11.897067,-0.0196 24.097728,-10e-4 36.283339,-10e-4 3.494276,0 6.323242,-2.74192 6.46504,-6.20015 h 0.0069 v -6.7602 c -12.260967,0.006 -25.521875,0.0168 -36.283041,0.0162 z"
       style="opacity:1;vector-effect:none;fill:#0055ff;fill-opacity:1;fill-rule:evenodd;stroke:none;stroke-width:0.81018889;stroke-linecap:round;stroke-linejoin:round;stroke-miterlimit:4;stroke-dasharray:none;stroke-dashoffset:0;stroke-opacity:1;paint-order:stroke fill markers"
       inkscape:connector-curvature="0" />
    <text
       id="text937"
       y="294.64481"
       x="19.324228"
       style="font-style:normal;font-variant:normal;font-weight:normal;font-stretch:normal;font-size:11.45063114px;line-height:125%;font-family:Arial;-inkscape-font-specification:'Arial, Normal';font-variant-ligatures:normal;font-variant-caps:normal;font-variant-numeric:normal;font-feature-settings:normal;text-align:start;letter-spacing:0px;word-spacing:0px;writing-mode:lr-tb;text-anchor:start;fill:#ffff00;fill-opacity:1;stroke:none;stroke-width:1.17013514px;stroke-linecap:butt;stroke-linejoin:miter;stroke-opacity:1;"
       xml:space="preserve"><tspan
         style="font-style:normal;font-variant:normal;font-weight:normal;font-stretch:normal;font-family:'Futura Bk BT';-inkscape-font-specification:'Futura Bk BT';fill:#ffff00;fill-opacity:1;stroke-width:1.17013514px;"
         y="294.64481"
         x="19.324228"
         id="tspan935"
         sodipodi:role="line">APP</tspan></text>
    <text
       id="text941"
       y="294.63684"
       x="40.265087"
       style="font-style:normal;font-variant:normal;font-weight:normal;font-stretch:normal;font-size:9.54302025px;line-height:125%;font-family:Arial;-inkscape-font-specification:'Arial, Normal';font-variant-ligatures:normal;font-variant-caps:normal;font-variant-numeric:normal;font-feature-settings:normal;text-align:start;letter-spacing:0px;word-spacing:0px;writing-mode:lr-tb;text-anchor:start;fill:#ffffff;fill-opacity:1;stroke:none;stroke-width:0.97519726px;stroke-linecap:butt;stroke-linejoin:miter;stroke-opacity:1"
       xml:space="preserve"><tspan
         style="font-style:normal;font-variant:normal;font-weight:normal;font-stretch:normal;font-family:Bebas;-inkscape-font-specification:Bebas;fill:#ffffff;fill-opacity:1;stroke-width:0.97519726px"
         y="294.63684"
         x="40.265087"
         id="tspan939"
         sodipodi:role="line">EDU</tspan></text>
    <circle
       r="6.5251732"
       cy="290.38239"
       cx="6.8040781"
       id="circle947"
       style="opacity:1;vector-effect:none;fill:#0055ff;fill-opacity:1;fill-rule:evenodd;stroke:none;stroke-width:0.30827591;stroke-linecap:round;stroke-linejoin:round;stroke-miterlimit:4;stroke-dasharray:none;stroke-dashoffset:0;stroke-opacity:1;paint-order:stroke fill markers" />
    <path
       inkscape:connector-curvature="0"
       id="path949"
       d="m 3.6270214,286.39301 c -0.45225,0 -0.8163276,0.36407 -0.8163276,0.81632 0,0.0298 0.00179,0.0592 0.00489,0.0882 -0.00318,0.0357 -0.00489,0.072 -0.00489,0.10882 v 1.18728 c 0.0097,0.43681 0.329317,0.78541 0.7256612,0.78541 0.00176,0 0.00346,-2.1e-4 0.00522,-3e-4 v 0.007 c 0.0299,-0.003 0.060202,-0.005 0.090998,-0.005 h 0.8819653 v -1.35435 h 2.9693605 c 0.45225,0 0.8164105,-0.36408 0.8164105,-0.81633 0,-0.45225 -0.3641605,-0.81632 -0.8164105,-0.81632 z m 4.2290747,2.30991 c -0.1072843,0 -0.1935981,0.0863 -0.1935981,0.1936 v 0.4443 c 0,0.10728 0.086314,0.19359 0.1935981,0.19359 h 0.4442981 c 0.1072843,0 0.1935982,-0.0863 0.1935982,-0.19359 v -0.4443 c 0,-0.10728 -0.086314,-0.1936 -0.1935982,-0.1936 z m -4.3145198,2.657 v 0.006 c -0.00176,0 -0.00346,-3.1e-4 -0.00522,-3.1e-4 -0.3963442,0 -0.7159557,0.34861 -0.7256612,0.78542 v 1.20725 c 0,0.0327 0.00145,0.065 0.00398,0.097 -0.00253,0.0263 -0.00398,0.053 -0.00398,0.08 0,0.35965 0.2306228,0.66287 0.5523679,0.77224 0.093127,0.0414 0.1940479,0.0641 0.2995961,0.0641 0.058037,0 0.1146811,-0.007 0.1693985,-0.02 h 3.6518451 c 0.45225,0 0.8164104,-0.36416 0.8164104,-0.81641 0,-0.45225 -0.3641604,-0.81632 -0.8164104,-0.81632 H 4.5145391 v -1.35386 h -0.881965 c -0.030797,0 -0.061099,-0.002 -0.090998,-0.005 z"
       style="opacity:1;vector-effect:none;fill:#ffffff;fill-opacity:1;fill-rule:evenodd;stroke:none;stroke-width:0.16646795;stroke-linecap:round;stroke-linejoin:round;stroke-miterlimit:4;stroke-dasharray:none;stroke-dashoffset:0;stroke-opacity:1;paint-order:stroke fill markers" />
    <rect
       ry="0.24529471"
       style="opacity:1;vector-effect:none;fill:#ffff00;fill-opacity:1;fill-rule:evenodd;stroke:none;stroke-width:0.20464256;stroke-linecap:round;stroke-linejoin:round;stroke-miterlimit:4;stroke-dasharray:none;stroke-dashoffset:0;stroke-opacity:1;paint-order:stroke fill markers"
       id="rect951"
       width="1.6541284"
       height="1.6541284"
       x="9.1524439"
       y="287.1004" />
    <path
       sodipodi:nodetypes="cccccssccsssccssc"
       inkscape:connector-curvature="0"
       id="path953"
       d="m 2.8101966,288.734 -0.00862,9e-5 v 1.67061 1.60597 h 0.00862 c -1.6e-5,-0.003 -4.316e-4,-0.006 -4.316e-4,-0.009 0,-0.44632 0.3240723,-0.80564 0.726573,-0.80564 0.00176,0 0.00346,3.1e-4 0.00522,3.1e-4 0.041476,-0.002 0.068743,-0.002 0.090997,-9.3e-4 h 2.3782901 c 0.455826,0 0.8227921,-0.36696 0.8227921,-0.82279 0,-0.45582 -0.3669661,-0.82279 -0.8227921,-0.82279 H 3.632555 c -0.04719,3.1e-4 -0.070854,-3.1e-4 -0.090998,-0.002 -0.00176,1e-5 -0.00345,3.1e-4 -0.00522,3.1e-4 -0.4025007,0 -0.7265736,-0.35932 -0.7265736,-0.80564 0,-0.003 3.699e-4,-0.006 4.316e-4,-0.009 z"
       style="opacity:1;vector-effect:none;fill:#ffff00;fill-opacity:1;fill-rule:evenodd;stroke:none;stroke-width:0.12860857;stroke-linecap:round;stroke-linejoin:round;stroke-miterlimit:4;stroke-dasharray:none;stroke-dashoffset:0;stroke-opacity:1;paint-order:stroke fill markers" />
  </g>
</svg>
